<svg xmlns="http://www.w3.org/2000/svg" width="1200" height="675" viewBox="0 0 1200 675">
  <defs>
    <linearGradient id="bg" x1="0%" y1="0%" x2="100%" y2="100%">
      <stop offset="0%" stop-color="#fde68a" />
      <stop offset="100%" stop-color="#dc2626" />
    </linearGradient>
    <linearGradient id="overlay" x1="0%" y1="0%" x2="0%" y2="100%">
      <stop offset="0%" stop-color="#ffffff" stop-opacity="0.2" />
      <stop offset="100%" stop-color="#1f2937" stop-opacity="0.6" />
    </linearGradient>
  </defs>
  <rect width="1200" height="675" fill="url(#bg)" rx="48" />
  <path d="M0 507C184 447 384 567 590 507C796 447 996 567 1200 507V675H0V507Z" fill="#1f2937" opacity="0.45" />
  <rect x="80" y="80" width="490" height="180" rx="24" fill="#ffffff" fill-opacity="0.15" />
  <path d="M660 120H1080" stroke="#fde68a" stroke-width="16" stroke-linecap="round" />
  <path d="M660 180H980" stroke="#fde68a" stroke-width="16" stroke-linecap="round" opacity="0.7" />
  <path d="M660 240H900" stroke="#fde68a" stroke-width="16" stroke-linecap="round" opacity="0.4" />
  <circle cx="220" cy="430" r="110" fill="#991b1b" opacity="0.75" />
  <circle cx="220" cy="430" r="72" fill="#f87171" opacity="0.85" />
  <rect x="180" y="360" width="80" height="100" rx="12" fill="#1f2937" />
  <path d="M240 360V350C240 327 260 308 285 308C310 308 330 327 330 350V360" stroke="#fef3c7" stroke-width="14" stroke-linecap="round" />
  <text x="100" y="150" fill="#ffffff" font-family="'Inter', 'Helvetica Neue', Arial, sans-serif" font-size="56" font-weight="700">Aprueba el teórico</text>
  <text x="100" y="210" fill="#fef3c7" font-family="'Inter', 'Helvetica Neue', Arial, sans-serif" font-size="32" font-weight="500">Planificación, tests y concentración</text>
  <text x="120" y="470" fill="#fef3c7" font-family="'Inter', 'Helvetica Neue', Arial, sans-serif" font-size="26" font-weight="600">Autoescola Fran</text>
</svg>
