<svg xmlns="http://www.w3.org/2000/svg" width="1200" height="675" viewBox="0 0 1200 675">
  <defs>
    <linearGradient id="bg" x1="0%" y1="0%" x2="100%" y2="0%">
      <stop offset="0%" stop-color="#facc15" />
      <stop offset="100%" stop-color="#b91c1c" />
    </linearGradient>
  </defs>
  <rect width="1200" height="675" rx="48" fill="url(#bg)" />
  <rect x="120" y="140" width="960" height="360" rx="40" fill="#111827" opacity="0.72" />
  <path d="M200 520C280 420 420 380 580 410C740 440 820 360 1000 380C1080 390 1140 410 1200 440V675H0V580C60 570 120 560 200 520Z" fill="#1f2937" opacity="0.45" />
  <g transform="translate(200 220)">
    <rect x="0" y="80" width="120" height="120" rx="24" fill="#f59e0b" />
    <rect x="30" y="30" width="60" height="60" rx="18" fill="#fef3c7" />
    <path d="M150 60H320" stroke="#fde68a" stroke-width="16" stroke-linecap="round" />
    <path d="M150 120H300" stroke="#fde68a" stroke-width="16" stroke-linecap="round" opacity="0.6" />
    <path d="M150 180H260" stroke="#fde68a" stroke-width="16" stroke-linecap="round" opacity="0.4" />
    <circle cx="380" cy="100" r="54" fill="#ef4444" />
    <circle cx="380" cy="100" r="30" fill="#fee2e2" />
    <rect x="360" y="154" width="40" height="40" rx="12" fill="#991b1b" />
  </g>
  <text x="220" y="220" fill="#fef9c3" font-family="'Inter', 'Helvetica Neue', Arial, sans-serif" font-size="56" font-weight="700">Mantenimiento básico del vehículo</text>
  <text x="220" y="280" fill="#fde68a" font-family="'Inter', 'Helvetica Neue', Arial, sans-serif" font-size="34" font-weight="500">Fluidos · Neumáticos · Visibilidad</text>
  <text x="220" y="330" fill="#fef3c7" font-family="'Inter', 'Helvetica Neue', Arial, sans-serif" font-size="28">Rutinas sencillas para cuidar tu coche</text>
</svg>
